<svg width="512" height="512" viewBox="0 0 512 512" fill="none" xmlns="http://www.w3.org/2000/svg">
  <rect width="512" height="512" rx="120" fill="#4F46E5"/>
  <path d="M256 120C240 120 220 130 220 150V180H292V150C292 130 272 120 256 120Z" fill="white" fill-opacity="0.5"/>
  <rect x="180" y="180" width="152" height="40" rx="10" fill="white"/>
  <path d="M190 220H322C330 220 335 225 335 235V360C335 390 310 410 280 410H232C202 410 177 390 177 360V235C177 225 182 220 190 220Z" fill="white"/>
  <rect x="200" y="260" width="112" height="15" rx="7.5" fill="#4F46E5" fill-opacity="0.1"/>
  <rect x="200" y="290" width="112" height="15" rx="7.5" fill="#4F46E5" fill-opacity="0.1"/>
  <rect x="200" y="320" width="112" height="15" rx="7.5" fill="#4F46E5" fill-opacity="0.1"/>
</svg>
